<svg width="496" height="496" viewBox="0 0 496 496" fill="none" xmlns="http://www.w3.org/2000/svg">
<g clip-path="url(#clip0)">
<path d="M245.606 384.788C250.251 389.432 256.674 392.094 263.246 392.094C276.699 392.094 287.63 381.37 288.102 368.03C301.137 367.566 311.616 357.087 312.08 344.052C325.115 343.588 335.594 333.109 336.058 320.074C349.398 319.594 360.126 308.667 360.126 295.218C360.126 294.083 359.943 292.963 359.79 291.835L371.26 280.365L380.529 298.91L435.639 271.357L428.485 257.058L387.683 277.465L339.223 180.539L381.29 164.042L375.456 149.157L327.82 167.839L256.549 146.457C251.203 144.86 245.704 144.298 240.252 144.497V144.322H153.613L117.139 132.2L112.096 147.37L141.741 157.216L99.9083 261.815L75.3566 251.992L69.4246 266.834L108.81 282.589L118.7 257.874L133.022 272.204L119.66 285.571C115.015 290.215 112.354 296.639 112.354 303.211C112.354 316.66 123.078 327.595 136.418 328.067C136.882 341.102 147.361 351.581 160.396 352.045C160.86 365.08 171.339 375.558 184.374 376.023C184.854 389.362 195.781 400.087 209.234 400.087C215.802 400.087 222.229 397.425 226.87 392.781L240.236 379.418L245.606 384.788ZM251.944 161.778L322.551 182.958L363.72 265.308L352.133 276.887L319.281 243.785C322.216 244.062 325.174 244.23 328.155 244.23V228.245C309.548 228.245 291.74 221.317 278.026 208.743L259.336 191.622C248.787 181.936 230.893 182.322 220.766 192.461L199.594 213.637C197.916 215.3 195.605 216.256 193.248 216.256C188.307 216.256 184.288 212.236 184.288 207.299C184.288 204.899 185.213 202.655 186.906 200.957L217.374 170.493C226.335 161.533 239.772 158.126 251.944 161.778V161.778ZM157.726 160.307H204.956L175.608 189.659C170.89 194.366 168.302 200.633 168.302 207.299C168.302 221.052 179.491 232.241 193.248 232.241C199.816 232.241 206.244 229.579 210.884 224.935L232.06 203.756C236.392 199.439 244.022 199.271 248.533 203.404L267.219 220.533C273.428 226.223 280.328 230.957 287.712 234.665L341.518 288.876C343.189 290.551 344.141 292.857 344.141 295.218C344.141 300.155 340.121 304.175 335.18 304.175C332.823 304.175 330.513 303.227 328.842 301.556L261.873 234.583L250.571 245.885L317.54 312.854C319.211 314.529 320.163 316.835 320.163 319.196C320.163 324.133 316.143 328.153 311.202 328.153C308.845 328.153 306.535 327.205 304.864 325.534L237.895 258.561L226.593 269.863L293.562 336.832C295.233 338.507 296.185 340.813 296.185 343.174C296.185 348.111 292.165 352.131 287.224 352.131C284.867 352.131 282.557 351.182 280.886 349.512L213.917 282.539L202.615 293.841L269.584 360.81C271.255 362.485 272.207 364.791 272.207 367.152C272.207 372.089 268.187 376.109 263.246 376.109C260.889 376.109 258.579 375.16 256.908 373.49L247.893 364.471C248.053 363.355 248.229 362.235 248.229 361.091C248.229 347.639 237.501 336.707 224.161 336.235C223.697 323.2 213.218 312.722 200.183 312.257C199.719 299.222 189.24 288.744 176.205 288.279C175.725 274.94 164.802 264.212 151.349 264.212C150.214 264.212 149.094 264.395 147.97 264.547L125.151 241.728L157.726 160.307ZM128.339 303.211C128.339 300.85 129.287 298.543 130.958 296.869L145.011 282.82C146.682 281.149 148.992 280.197 151.349 280.197C156.29 280.197 160.31 284.221 160.31 289.157C160.31 291.515 159.358 293.825 157.687 295.495L143.638 309.549C141.967 311.219 139.657 312.168 137.3 312.168C132.359 312.168 128.339 308.148 128.339 303.211ZM152.317 327.189C152.317 324.828 153.265 322.521 154.936 320.847L168.989 306.797C170.66 305.127 172.97 304.175 175.327 304.175C180.268 304.175 184.288 308.199 184.288 313.135C184.288 315.493 183.335 317.803 181.665 319.473L167.616 333.527C165.945 335.197 163.635 336.146 161.278 336.146C156.337 336.146 152.317 332.126 152.317 327.189ZM176.295 351.167C176.295 348.806 177.243 346.499 178.914 344.825L192.967 330.775C194.638 329.105 196.948 328.153 199.305 328.153C204.246 328.153 208.266 332.177 208.266 337.113C208.266 339.471 207.313 341.781 205.643 343.451L191.593 357.505C189.923 359.175 187.613 360.123 185.256 360.123C180.315 360.123 176.295 356.104 176.295 351.167ZM229.621 367.429L215.571 381.483C213.901 383.153 211.591 384.101 209.234 384.101C204.293 384.101 200.273 380.082 200.273 375.145C200.273 372.784 201.221 370.477 202.892 368.803L216.945 354.753C218.616 353.083 220.926 352.131 223.283 352.131C228.224 352.131 232.244 356.154 232.244 361.091C232.244 363.449 231.291 365.759 229.621 367.429Z" fill="#FF0000"/>
<path d="M95.6309 389.522L106.933 378.216L118.235 389.522L106.933 400.824L95.6309 389.522Z" fill="#FF0000"/>
<path d="M126.122 416.564L135.009 403.275L148.289 412.154L139.407 425.442L126.122 416.564Z" fill="#FF0000"/>
<path d="M161.305 437.154L167.424 422.386L182.192 428.506L176.073 443.274L161.305 437.154Z" fill="#FF0000"/>
<path d="M199.844 450.501L202.966 434.832L218.631 437.954L215.509 453.623L199.844 450.501Z" fill="#FF0000"/>
<path d="M348.153 84.2873L357.039 70.9988L370.32 79.8773L361.433 93.1659L348.153 84.2873Z" fill="#FF0000"/>
<path d="M314.246 67.9547L320.366 53.187L335.133 59.3064L329.014 74.0741L314.246 67.9547Z" fill="#FF0000"/>
<path d="M277.823 58.5373L280.937 42.8564L296.606 45.9708L293.492 61.6478L277.823 58.5373Z" fill="#FF0000"/>
<path d="M400.089 64.3953H384.104V104.359H344.141V120.344H400.089V64.3953Z" fill="#FF0000"/>
<path d="M112.354 344.138H64.3979V392.094H80.3833V360.123H112.354V344.138Z" fill="#FF0000"/>
<path d="M248.229 56.4028H256.221V40.4175H248.229C195.629 40.4175 145.44 60.1142 106.909 95.8704L117.786 107.59C153.355 74.5814 199.672 56.4028 248.229 56.4028V56.4028Z" fill="#FF0000"/>
<path d="M248.229 440.05H240.236V456.035H248.229C321.29 456.035 387.651 418.749 425.753 356.295L412.109 347.975C376.935 405.629 315.671 440.05 248.229 440.05V440.05Z" fill="#FF0000"/>
<path d="M44.5606 331.166L0.464417 309.124L0 93.2751L125.884 135.108L119.5 147.889L44.5606 331.166Z" fill="white"/>
<path d="M461.072 331.736L367.143 152.42L496.001 101.865V308.452L461.072 331.736Z" fill="white"/>
</g>
<defs>
<clipPath id="clip0">
<rect width="496" height="496" fill="white"/>
</clipPath>
</defs>
</svg>
