<svg width="1336" height="820" viewBox="0 0 1336 820" fill="none" xmlns="http://www.w3.org/2000/svg">
<path d="M147.5 520.6L358.4 431.9V509.2L217.1 571.1V675.7L147.6 703.6V520.6H147.5ZM307.1 89.7001C416.5 89.7001 506.4 176.4 506.4 293.2V524.3C501.9 615.8 579.1 690.4 668.3 690.4C757.5 690.4 827.3 615.8 827.3 524.2V267.7L757.7 295.6V524.2C757.7 574.4 716.9 615.3 668.3 615.3C619.6 615.3 578.2 574.4 578.2 524.2V293.2C578.2 139.5 457.1 14.6001 307.1 14.6001C157.1 14.6001 33.1001 139.5 33.1001 293.2V745.6L109.4 717.1V293.2C109.4 180.9 197.7 89.7001 307.1 89.7001ZM1032 690.4C1123.2 690.4 1195.1 615.8 1195.1 524.2V120.3L1125.6 148.2V524.2C1125.6 573.5 1081.8 615.3 1032 615.3C982.2 615.3 941.6 573.5 941.6 524.2V224.8L865.3 253.7V524.2C865.3 615.8 940.8 690.4 1032 690.4ZM1233.2 106V524.2C1233.2 636.5 1143 729.4 1031.6 729.4C950.2 729.4 877.5 679.3 845.4 609.3C814 679.2 747.9 729.4 668 729.4C558.6 729.4 470.6 636.5 470.6 524.2V293.2C470.6 201.6 396.4 127.2 307.2 127.2C218 127.2 147.6 201.6 147.6 293.2V476.4L358.5 387.5V311L217 373.4V293.2C217 243 258 202.3 306.7 202.3C352.8 202.3 397.4 242.1 397.4 293.2C398.8 295.8 397.3 524.3 397.3 524.3C398.6 676.9 518.3 805.4 667.5 805.4C736.8 805.4 798.4 773.4 846.5 729.5C895.2 773.4 961.3 805.4 1031.6 805.4C1183.6 805.4 1302.8 678 1302.8 524.3V79.1001L1233.2 106Z" fill="white"/>
</svg>
