<?xml version="1.0"?>
<svg xmlns="http://www.w3.org/2000/svg" height="512px" viewBox="0 0 48 56" width="512px" class=""><g><path id="Shape" d="m37.88 23.85c-.0040912.0432368-.0040912.0867632 0 .13-.1401753 1.2826806-.7707959 2.4615111-1.76 3.29-.15-3.23.42-3.56.73-7 .2996718-.1823024.6514873-.2597019 1-.22.3.34.37 2.08.03 3.8zm-28-15.46c2.73-6.28 9.9-4.39 14.12-4.39 3.69 0 5.27-2 5.79-3.68 2.62 1 9.21 4.14 9.21 10.68.0464738 2.406233-.4276851 4.7940836-1.39 7-.306933.0049493-.6122762.0452143-.91.12-.7-4.67-2.27-7.12-4.7-7.12-4 0-4.25 1-8 1s-3.94-1-8-1c-2.43 0-4 2.43-4.69 7.1-.3025432-.0654086-.6105644-.1022372-.92-.11-.3415398-.0333407-.68591325.0217591-1 .16-.94258888-3.2184548-.7555637-6.6625411.53-9.76zm.26 15.61c0-.1-.58-3.08 0-4 .3444577-.0133342.6871676.0552077 1 .2.31 3.47.89 3.84.74 7.09-.9817535-.8319011-1.6049725-2.0102864-1.74-3.29zm3.8 2c0-2.11-.59-3.4-.82-6.28.38-4.14 1.48-6.72 2.88-6.72 3.73 0 3.94 1 8 1s4.25-1 8-1c1.39 0 2.5 2.59 2.88 6.7-.22 2.79-.82 4.25-.82 6.32 0 3.27.76 5.36-2.22 8.07-3.46 3.14-3.42 5.91-6.14 5.91h-3.4c-2.72 0-2.69-2.78-6.14-5.91-2.98-2.71-2.22-4.82-2.22-8.09zm-13.76 26c3.91-2.11 5.49-3.24 7.89-3.67.41176704-.0763411.81648906-.1867198 1.21-.33.43979462 2.6704564 1.5939024 5.1721751 3.34 7.24-4.28167764-.4719346-8.47209596-1.5633297-12.44-3.24zm16.7 3.7c-4.1-1.35-5.35-6.24-5.72-8.53 1.3779896-.8257322 2.6651008-1.7944175 3.84-2.89v1.72c0 .5522847.4477153 1 1 1s1-.4477153 1-1v-7.89c3 4.32 3.14 3.89 8.7 3.89 2.89 0 3.86-1.84 5.3-3.89v7.89c0 .5522847.4477153 1 1 1s1-.4477153 1-1v-1.72c1.175862 1.1002561 2.4627582 2.0754821 3.84 2.91-.37 2.28-1.62 7.18-5.71 8.53-4.742795.3699933-9.507205.3699933-14.25 0zm18.5-.46c1.7460976-2.0678249 2.9002054-4.5695436 3.34-7.24 1.73.59 2.53.28 6 2.28 1 .59 2.09 1.15 3.14 1.72-3.9787648 1.6894483-8.1832828 2.7877438-12.48 3.26z" data-original="#000000" class="active-path" data-old_color="#000000" fill="#FF0000"/></g> </svg>
