<?xml version="1.0"?>
<svg xmlns="http://www.w3.org/2000/svg" height="512px" viewBox="0 0 48 56" width="512px" class=""><g><path id="Shape" d="m37.88 23.85v.13c-.1482496 1.2852592-.7813021 2.4655267-1.77 3.3-.0916793-1.4345996.0160129-2.8749829.32-4.28 0-.75 0-1.45 0-2.13s.75-.9 1.48-.88c.337515 1.2659257.3271507 2.5994732-.03 3.86zm-15.17-23.85c6.79 0 9.47 4.42 9.57 4.6.179341.31063419.5113152.50142401.87.5h.27c.23 0 5.58.4 5.58 7.7-.0101942 1.799666-.4164768 3.5750189-1.19 5.2-.5576003-.0326142-1.1152476.063178-1.63.28-.87-7.91-3.82-9.76-4.18-10-.4684664-.25329659-1.0532551-.0950079-1.33.36-2.64 4.3-9 4.92-8.94 4.92h-5.22c-3.09 0-5 1.51-5.12 4v.5l-.31-.08c-.6768916-1.9574179-1.0413546-4.0092094-1.08-6.08 0-6.23 6.06-11.9 12.71-11.9zm-12.57 24c0-.1-.58-3.6 0-4 .2 0 1.22-.05 1.3.66.05.5 0 1 .26 3.25.1866912 1.1163551.2437363 2.2505465.17 3.38-.9780307-.8335987-1.597552-2.0117635-1.73-3.29zm3.59-.28c-.2434578-1.990499-.3570314-3.9947399-.34-6 0-.53.1-2.14 3.12-2.14h5.31c.28 0 6.45-.62 9.85-4.88 2.33 2.91 2.75 8.57 2.76 12.3-.3558529 1.5227331-.4639057 3.0928749-.32 4.65.11 2.38.2 4.25-2.27 6.49-1.1119649 1.0638601-2.0983956 2.2516032-2.94 3.54-1.15 1.63-1.68 2.32-3.2 2.32h-3.4c-2.73 0-2.67-2.76-6.14-5.91s-1.71-5.49-2.43-10.39zm-13.55 28.28c3.91-2.11 5.49-3.24 7.89-3.67.41176704-.0763411.81648906-.1867198 1.21-.33.43979462 2.6704564 1.5939024 5.1721751 3.34 7.24-4.28167764-.4719346-8.47209596-1.5633297-12.44-3.24zm16.7 3.7c-4.1-1.35-5.35-6.24-5.72-8.53 1.3779896-.8257322 2.6651008-1.7944175 3.84-2.89v1.72c0 .5522847.4477153 1 1 1s1-.4477153 1-1v-7.89c3 4.32 3.14 3.89 8.7 3.89 2.89 0 3.86-1.84 5.3-3.89v7.89c0 .5522847.4477153 1 1 1s1-.4477153 1-1v-1.72c1.175862 1.1002561 2.4627582 2.0754821 3.84 2.91-.37 2.28-1.62 7.18-5.71 8.53-4.742795.3699933-9.507205.3699933-14.25 0zm18.5-.46c1.7460976-2.0678249 2.9002054-4.5695436 3.34-7.24 1.73.59 2.53.28 6 2.28 1 .59 2.09 1.15 3.14 1.72-3.9787648 1.6894483-8.1832828 2.7877438-12.48 3.26z" data-original="#000000" class="active-path" data-old_color="#000000" fill="#FF0000"/></g> </svg>
