<?xml version="1.0"?>
<svg xmlns="http://www.w3.org/2000/svg" height="512px" viewBox="0 0 48 56" width="512px"><g><path id="Shape" d="m37.86 24c-.1376876 1.2862576-.7685325 2.4690917-1.76 3.3-.1157315-1.3066095-.0211982-2.6233239.28-3.9.27-1.41-.18-.09 1.67-2.69.0939729 1.1001147.0299907 2.2080169-.19 3.29zm-25.86-20.1c1.9270556-2.45857026 4.8762047-3.89628045 8-3.9 9.51 0 9.64 2.77 10.82 3 .06 0 5.82 1.11 7.23 5.34.94 2.82.87 7.49-.88 10.13-.5653246.8897696-1.197126 1.7355144-1.89 2.53-.6651657-.9698535-1.1027162-2.0774031-1.28-3.24-.5607996-3.0246275-2.6503313-5.5419075-5.52-6.65-.3731092-.1879438-.8237343-.1241384-1.13.16-2.1216035 1.830497-4.4080143 3.4607782-6.83 4.87-2.5209869 1.586369-5.3760208 2.5654334-8.34 2.86-.54-.26-2.45-1.44-3.2-5.19-.5-2.49.38-6.68 3.02-9.91zm-1.86 20.1s0-.08 0-.13c-.35-1.76-.26-3.55 0-3.84.3295314.2762038.6844447.5206253 1.06.73.37 3.25.84 3.36.69 6.53-.985478-.8301978-1.6123967-2.008805-1.75-3.29zm3.71 4.89c.2068614-1.9653342.1192294-3.9505374-.26-5.89-.12-.61-.24-1.28-.35-2.11 2.9301255-.4346163 5.7427099-1.4549009 8.27-3 2.3352779-1.3718865 4.555842-2.9302945 6.64-4.66 2.0543578.9049487 3.5134938 2.7852785 3.88 5 .64 2.58 1.42 4 2.42 4.6-.65 3.35-.3 3.61-.3 6.08.1197899 1.9970332-.7424784 3.9268719-2.31 5.17-1.1065568 1.0652254-2.0924943 2.249021-2.94 3.53-1.15 1.7-1.68 2.39-3.2 2.39h-3.4c-2.72 0-2.69-2.78-6.14-5.91-1.5633375-1.2682734-2.4226343-3.2100609-2.31-5.22zm-13.67 23.11c3.9-2.11 5.49-3.24 7.89-3.67.41176704-.0763411.81648906-.1867198 1.21-.33.43979462 2.6704564 1.5939024 5.1721751 3.34 7.24-4.28209014-.4696952-8.4728283-1.5611736-12.44-3.24zm16.7 3.7c-4.1-1.35-5.36-6.25-5.72-8.53 1.3774115-.8265907 2.6644359-1.7952107 3.84-2.89v1.72c0 .5522847.4477153 1 1 1s1-.4477153 1-1v-7.89c3 4.31 3.13 3.89 8.7 3.89 2.88 0 3.86-1.84 5.3-3.89v7.89c0 .5522847.4477153 1 1 1s1-.4477153 1-1v-1.72c1.175862 1.1002561 2.4627582 2.0754821 3.84 2.91-.36 2.28-1.62 7.18-5.71 8.53-4.742795.3699933-9.507205.3699933-14.25 0zm18.5-.46c1.7460976-2.0678249 2.9002054-4.5695436 3.34-7.24 1.73.59 2.53.28 6 2.28 1 .59 2.09 1.15 3.14 1.72-3.9787648 1.6894483-8.1832828 2.7877438-12.48 3.26z" data-original="#000000" class="active-path" data-old_color="#000000" fill="#FF0000"/></g> </svg>
