<?xml version="1.0"?>
<svg xmlns="http://www.w3.org/2000/svg" height="512px" viewBox="0 0 48 56" width="512px"><g><path id="Shape" d="m36.1 28.27c-.1136867-1.5592191.0281827-3.1265378.42-4.64.4556839.7498405.834281 1.5438893 1.13 2.37-.2859124.8908151-.8243875 1.6794206-1.55 2.27zm-24.32-21.46c2.2038858-2.67357627 5.6213584-4.03528444 9.06-3.61.2859428.04597251.5777725-.03428065.8-.22 5.57-4.6 12.9-.56 16.49 5.68 2.73 4.74 1.7 11.39.78 15.14-2.4225615-4.4459292-6.0519662-8.1169316-10.47-10.59-2.84-1.41-4.26 0-3.87 2.49-6.32-1.8-6.57-4.56-6.57-4.56 0-.5522847-.4477153-1-1-1-2 0-5.42 1.07-6 8.27-.0009698.0166526-.0009698.0333474 0 .05s.0009698.0333474 0 .05v.56h-.29c-.56-2.2-1.92-8.55 1.07-12.26zm-1.64 18.19s0-.08 0-.13c-.36-1.81-.25-3.67.05-3.87.3444577-.0133342.6871676.0552077 1 .2.32 3.59.89 3.74.74 7.09-1.0003927-.8233282-1.6421313-2.0028365-1.79-3.29zm3.71 4.94c0-2.26.33-2.78-.26-5.89-.3726408-1.8202891-.5702082-3.6720652-.59-5.53.21-2.64 1-5.72 3.22-6.29.57 1.55 2.57 4.29 9.55 5.84.3632757.0831242.7426364-.0426514.9842968-.3263397.2416605-.2836884.3055246-.6782203.1657032-1.0236603-.2817899-.6534846-.424809-1.3583649-.42-2.07.36902.0549853.7248734.1769922 1.05.36 2.8081054 1.5760538 5.27842 3.6895829 7.27 6.22-.0876427.9299272-.2245013 1.8545569-.41 2.77-.6 3.15-.26 3.52-.26 5.92.1197899 1.9970332-.7424784 3.9268719-2.31 5.17-1.1065568 1.0652254-2.0924943 2.249021-2.94 3.53-1.15 1.69-1.68 2.38-3.2 2.38-4.75 0-4.7.41-6.6-2.38-.8438934-1.2836615-1.8301516-2.4678422-2.94-3.53-1.5675216-1.2431281-2.4297899-3.1729668-2.31-5.17zm-13.67 23.06c3.9-2.11 5.49-3.24 7.89-3.67.41176704-.0763411.81648906-.1867198 1.21-.33.43979462 2.6704564 1.5939024 5.1721751 3.34 7.24-4.28209014-.4696952-8.4728283-1.5611736-12.44-3.24zm16.7 3.7c-4.1-1.35-5.36-6.25-5.72-8.53 1.3774115-.8265907 2.6644359-1.7952107 3.84-2.89v1.72c0 .5522847.4477153 1 1 1s1-.4477153 1-1v-7.89c3 4.32 3.14 3.89 8.7 3.89 2.88 0 3.86-1.84 5.3-3.89v7.89c0 .5522847.4477153 1 1 1s1-.4477153 1-1v-1.72c1.175862 1.1002561 2.4627582 2.0754821 3.84 2.91-.36 2.28-1.62 7.18-5.71 8.53-4.742795.3699933-9.507205.3699933-14.25 0zm18.5-.46c1.7460976-2.0678249 2.9002054-4.5695436 3.34-7.24 1.73.59 2.53.28 6 2.28 1 .59 2.09 1.15 3.14 1.72-3.9787648 1.6894483-8.1832828 2.7877438-12.48 3.26z" transform="translate(0 -1)" data-original="#000000" class="active-path" data-old_color="#000000" fill="#FF0000"/></g> </svg>
