<?xml version="1.0"?>
<svg xmlns="http://www.w3.org/2000/svg" height="512px" viewBox="0 0 48 56" width="512px"><g><path id="Shape" d="m37.88 23.85c-.0040912.0432368-.0040912.0867632 0 .13-.1401753 1.2826806-.7707959 2.4615111-1.76 3.29-.15-3.25.43-3.59.75-7.06.3011487-.1781189.6526405-.2519322 1-.21.28.39.35 2.13.01 3.85zm-28.88-22.96c5.3115918-.60633433 10.6539298-.90350188 16-.89 9 0 10 4.2 10 6-.0148006.46776644.2968001.88323396.75 1 1.8508915.46447142 3.1742528 2.09322386 3.25 4 0 3.92-.12 6.07-2 6.91 0-.9 0-1.35 0-1.25v-.07c-.66-7.1-3-8.59-4.92-8.59-4.14 0-4.24 1-8.08 1s-4-1-8.08-1c-2.6 0-4.27 2.75-4.85 8-1.14708843-2.5656292-1.84717045-5.3084626-2.07-8.11-.16389537-2.3304553-.16389537-4.6695447 0-7zm1.17 23c-.36-1.81-.26-3.66.05-3.87.3438439-.0192225.6871667.0460089 1 .19.31 3.37.9 3.81.75 7.1-1.0533851-.8604908-1.7193974-2.1061139-1.85-3.46zm3.77 2.11c0-2.73-.91-3.71-.94-9.27.3-3.27 1.22-6.75 2.92-6.75 3.82 0 4 1 8.08 1s4.25-1 8.08-1c1.42 0 2.54 2.6 2.92 6.72 0 5.47-.94 6.58-.94 9.3 0 3.21.78 5.35-2.22 8.07-1.1119649 1.0638601-2.0983956 2.2516032-2.94 3.54-1.15 1.7-1.68 2.39-3.2 2.39h-3.4c-2.72 0-2.67-2.76-6.14-5.91-3-2.72-2.22-4.87-2.22-8.09zm-13.76 26c3.91-2.11 5.49-3.24 7.89-3.67.41176704-.0763411.81648906-.1867198 1.21-.33.43979462 2.6704564 1.5939024 5.1721751 3.34 7.24-4.28167764-.4719346-8.47209596-1.5633297-12.44-3.24zm16.7 3.7c-4.1-1.35-5.35-6.24-5.72-8.53 1.3779896-.8257322 2.6651008-1.7944175 3.84-2.89v1.72c0 .5522847.4477153 1 1 1s1-.4477153 1-1v-7.89c3 4.32 3.14 3.89 8.7 3.89 2.89 0 3.86-1.84 5.3-3.89v7.89c0 .5522847.4477153 1 1 1s1-.4477153 1-1v-1.72c1.175862 1.1002561 2.4627582 2.0754821 3.84 2.91-.37 2.28-1.62 7.18-5.71 8.53-4.742795.3699933-9.507205.3699933-14.25 0zm18.5-.46c1.7460976-2.0678249 2.9002054-4.5695436 3.34-7.24 1.73.59 2.53.28 6 2.28 1 .59 2.09 1.15 3.14 1.72-3.9787648 1.6894483-8.1832828 2.7877438-12.48 3.26z" data-original="#000000" class="active-path" data-old_color="#000000" fill="#FF0000"/></g> </svg>
