<?xml version="1.0"?>
<svg xmlns="http://www.w3.org/2000/svg" xmlns:xlink="http://www.w3.org/1999/xlink" version="1.1" id="Layer_1" x="0px" y="0px" viewBox="0 0 496.88 496.88" style="enable-background:new 0 0 496.88 496.88;" xml:space="preserve" width="512px" height="512px" class=""><g><circle style="fill:#FFFFFF" cx="248.44" cy="344.44" r="104" data-original="#F9BA48" class="active-path" data-old_color="#F9BA48"/><g>
	<path style="fill:#FF0000" d="M496.88,178.928L471.376,0.44H25.504L0,178.928l103.592,119.528   c-4.616,14.512-7.152,29.952-7.152,45.984c0,83.816,68.184,152,152,152s152-68.184,152-152c0-16.032-2.536-31.472-7.152-45.992   L496.88,178.928z M386.688,281.624c-3.896-8.536-8.512-16.664-13.856-24.272l102.304-117.464L480,173.952L386.688,281.624z    M134.136,244.576L24.736,118.96l4.504-31.568L151.36,227.6C145.152,232.768,139.448,238.496,134.136,244.576z M164.224,218.008   L32.232,66.464l5.656-39.584l153.848,176.648C182.04,207.44,172.808,212.264,164.224,218.008z M314.48,168.44H182.4l-27.872-32   h187.816L314.48,168.44z M356.28,120.44H140.6l-34.84-40h285.36L356.28,120.44z M405.056,64.44H91.824l-41.808-48h396.84   L405.056,64.44z M208.168,198.024l-11.832-13.584h104.2l-11.832,13.584c-12.848-3.536-26.304-5.584-40.264-5.584   S221.024,194.488,208.168,198.024z M458.992,26.88l5.656,39.584L332.656,218.008c-8.592-5.744-17.816-10.568-27.52-14.48   L458.992,26.88z M467.64,87.392l4.512,31.56L362.744,244.576c-5.312-6.08-11.016-11.808-17.224-16.968L467.64,87.392z    M16.88,173.952l4.864-34.064l102.304,117.464c-5.344,7.608-9.96,15.728-13.856,24.272L16.88,173.952z M248.44,480.44   c-74.992,0-136-61.008-136-136s61.008-136,136-136s136,61.008,136,136S323.432,480.44,248.44,480.44z" data-original="#333333" class="" data-old_color="#333333"/>
	<path style="fill:#FF0000" d="M274.64,307.456l-26.2-53.096l-26.2,53.096l-58.6,8.512l42.408,41.32l-10.016,58.352l52.408-27.544   l52.408,27.544l-10.016-58.352l42.408-41.32L274.64,307.456z M279.6,386.392l-31.16-16.376l-31.16,16.376l5.952-34.68l-25.2-24.568   l34.832-5.064l15.576-31.56l15.576,31.56l34.832,5.064l-25.2,24.568L279.6,386.392z" data-original="#333333" class="" data-old_color="#333333"/>
</g></g> </svg>
