<?xml version="1.0"?>
<svg xmlns="http://www.w3.org/2000/svg" height="512px" viewBox="0 0 496 496" width="512px" class="hovered-paths"><g><path d="m376 272c-48.519531 0-88-39.480469-88-88s39.480469-88 88-88 88 39.480469 88 88-39.480469 88-88 88zm0 0" fill="#f0bc5e" data-original="#F0BC5E" class="hovered-path active-path" data-old_color="#f0bc5e" style="fill:#FFFFFF"/><path d="m384 456c0 4.417969-3.582031 8-8 8s-8-3.582031-8-8 3.582031-8 8-8 8 3.582031 8 8zm0 0" data-original="#000000" class="" style="fill:#FF0000" data-old_color="#000000"/><path d="m160 400h-128v-112h128zm0 0" fill="#f0bc5e" data-original="#F0BC5E" class="hovered-path active-path" data-old_color="#f0bc5e" style="fill:#FFFFFF"/><path d="m160 248h-128v-112h128zm0 0" fill="#f0bc5e" data-original="#F0BC5E" class="hovered-path active-path" data-old_color="#f0bc5e" style="fill:#FFFFFF"/><path d="m496 184c0-63.472656-49.558594-115.449219-112-119.59375v-64.40625h-384v432h336v24c0 22.054688 17.945312 40 40 40s40-17.945312 40-40v-120h-16v-34.414062c54.703125-11.152344 96-59.632813 96-117.585938zm-16 0c0 57.34375-46.65625 104-104 104s-104-46.65625-104-104 46.65625-104 104-104 104 46.65625 104 104zm-144 152v80h-320v-400h352v48.40625c-62.441406 4.144531-112 56.121094-112 119.59375 0 57.953125 41.296875 106.433594 96 117.585938v34.414062zm64 120c0 13.230469-10.769531 24-24 24s-24-10.769531-24-24v-104h48zm-16-120h-16v-32.40625c2.65625.175781 5.296875.40625 8 .40625s5.34375-.230469 8-.40625zm0 0" data-original="#000000" class="" style="fill:#FF0000" data-old_color="#000000"/><path d="m348.441406 201.34375-8.882812 13.3125 31.546875 21.023438 44.054687-88.105469-14.320312-7.148438-35.945313 71.894531zm0 0" data-original="#000000" class="" style="fill:#FF0000" data-old_color="#000000"/><path d="m93.207031 345.894531-15.550781-15.550781-11.3125 11.3125 32.449219 32.449219 44.589843-107.027344-14.765624-6.15625zm0 0" data-original="#000000" class="" style="fill:#FF0000" data-old_color="#000000"/><path d="m93.207031 193.894531-15.550781-15.550781-11.3125 11.3125 32.449219 32.449219 44.589843-107.027344-14.765624-6.15625zm0 0" data-original="#000000" class="" style="fill:#FF0000" data-old_color="#000000"/><path d="m224 64h16v16h-16zm0 0" data-original="#000000" class="" style="fill:#FF0000" data-old_color="#000000"/><path d="m32 64h176v16h-176zm0 0" data-original="#000000" class="" style="fill:#FF0000" data-old_color="#000000"/><path d="m176 288h96v16h-96zm0 0" data-original="#000000" class="" style="fill:#FF0000" data-old_color="#000000"/><path d="m176 320h96v16h-96zm0 0" data-original="#000000" class="" style="fill:#FF0000" data-old_color="#000000"/><path d="m176 352h96v16h-96zm0 0" data-original="#000000" class="" style="fill:#FF0000" data-old_color="#000000"/><path d="m176 384h96v16h-96zm0 0" data-original="#000000" class="" style="fill:#FF0000" data-old_color="#000000"/><path d="m176 136h64v16h-64zm0 0" data-original="#000000" class="" style="fill:#FF0000" data-old_color="#000000"/><path d="m176 168h64v16h-64zm0 0" data-original="#000000" class="" style="fill:#FF0000" data-old_color="#000000"/><path d="m176 200h64v16h-64zm0 0" data-original="#000000" class="" style="fill:#FF0000" data-old_color="#000000"/><path d="m176 232h64v16h-64zm0 0" data-original="#000000" class="" style="fill:#FF0000" data-old_color="#000000"/><path d="m32 32h208v16h-208zm0 0" data-original="#000000" class="" style="fill:#FF0000" data-old_color="#000000"/></g> </svg>
