<svg width="512" height="512" viewBox="0 0 512 512" fill="none" xmlns="http://www.w3.org/2000/svg">
<path d="M464 8H208C185.944 8 168 25.944 168 48V160H48C25.944 160 8 177.944 8 200V392C8 414.056 25.944 432 48 432H108.088L156.848 494.696C161.456 500.608 168.392 504 175.88 504C189.176 504 200 493.176 200 479.88V432H304C326.056 432 344 414.056 344 392V350.528C348.336 349.024 352.24 346.44 355.16 342.696L403.912 280H464C486.056 280 504 262.056 504 240V48C504 25.944 486.056 8 464 8ZM488 240C488 253.232 477.232 264 464 264H396.088L342.528 332.864C341 334.832 338.6 336 336.12 336C331.64 336 328 332.36 328 327.88V264H208C194.768 264 184 253.232 184 240V48C184 34.768 194.768 24 208 24H464C477.232 24 488 34.768 488 48V240Z" fill="#FF0000"/>
<path d="M127.864 341.648H162.537C156.451 358.855 139.967 371.192 120.669 371.049C97.2538 370.876 77.8925 352.145 76.9835 328.746C76.0091 303.665 96.1312 282.95 121 282.95C132.371 282.95 142.747 287.282 150.57 294.381C152.423 296.063 155.244 296.074 157.066 294.359L169.801 282.373C171.793 280.498 171.8 277.332 169.814 275.451C157.408 263.698 140.766 256.372 122.413 256.013C83.2692 255.249 50.2744 287.343 50.0018 326.494C49.7267 365.938 81.6192 398 121 398C158.872 398 189.81 368.347 191.882 330.993C191.937 330.525 191.973 314.698 191.973 314.698H127.864C125.236 314.698 123.106 316.828 123.106 319.455V336.89C123.106 339.518 125.237 341.648 127.864 341.648Z" fill="black"/>
<path d="M250.724 316.281V299.246C250.724 296.944 248.858 295.077 246.555 295.077H232.218C229.915 295.077 228.048 296.944 228.048 299.246V316.281H211.014C208.711 316.281 206.845 318.147 206.845 320.45V334.787C206.845 337.09 208.711 338.957 211.014 338.957H228.048V355.991C228.048 358.294 229.915 360.16 232.218 360.16H246.555C248.858 360.16 250.724 358.294 250.724 355.991V338.957H267.758C270.061 338.957 271.928 337.09 271.928 334.787V320.45C271.928 318.147 270.061 316.281 267.758 316.281H250.724Z" fill="black"/>
<path d="M382.743 65.0352L360.828 65C336.206 65 320.295 81.3246 320.295 106.591V125.767H298.26C296.356 125.767 294.814 127.311 294.814 129.215V156.999C294.814 158.904 296.358 160.445 298.26 160.445H320.295V230.554C320.295 232.458 321.837 234 323.741 234H352.49C354.395 234 355.936 232.456 355.936 230.554V160.445H381.7C383.604 160.445 385.146 158.904 385.146 156.999L385.157 129.215C385.157 128.301 384.793 127.425 384.148 126.778C383.502 126.131 382.623 125.767 381.709 125.767H355.936V109.511C355.936 101.698 357.798 97.7317 367.976 97.7317L382.739 97.7265C384.642 97.7265 386.184 96.1828 386.184 94.2805V68.4812C386.184 66.5806 384.643 65.0387 382.743 65.0352Z" fill="white"/>
</svg>
