<?xml version="1.0" encoding="utf-8"?>
<!-- Generator: Adobe Illustrator 23.0.0, SVG Export Plug-In . SVG Version: 6.00 Build 0)  -->
<svg version="1.1" id="Capa_1" xmlns="http://www.w3.org/2000/svg" xmlns:xlink="http://www.w3.org/1999/xlink" x="0px" y="0px"
	 viewBox="0 0 512 512" style="enable-background:new 0 0 512 512;" xml:space="preserve">
<style type="text/css">
	.st0{fill:#FF3939;}
	.st1{fill:#C90232;}
	.st2{fill:#6E8DFF;}
	.st3{fill:#ECECF1;}
	.st4{fill:#E2E2E7;}
	.st5{fill:#5267FF;}
</style>
<path class="st0" d="M475.4,449.9l30.8,62.1H347c-91,0-165-74-165-165c0-12.5,1.4-25.1,4.2-37.2l123.6-123.6
	c12.1-2.8,24.6-4.2,37.2-4.2c91,0,165,74,165,165C512,384.3,499.1,420.5,475.4,449.9z"/>
<path class="st1" d="M475.4,449.9l30.8,62.1H347V182c91,0,165,74,165,165C512,384.3,499.1,420.5,475.4,449.9z"/>
<path class="st2" d="M165,0C74,0,0,74,0,165c0,37.3,12.9,73.5,36.6,102.9L5.8,330H165c91,0,165-74,165-165S256,0,165,0z"/>
<path class="st3" d="M388.6,335v8c0,8.1-1.1,16.1-3.4,23.7c-10.3,36.5-44.3,63.1-84,63.1c-48,0-87.3-38.8-87.3-86.8
	s39.3-86.8,87.3-86.8c27.5,0,53.7,13.8,67.1,31.2l-22.3,22.5c-9.4-12.9-26.4-22.3-44.6-22.3c-30.5,0-55.8,24.8-55.8,55.3
	s25.2,55.3,55.6,55.3c22,0,41.6-12.9,50.3-31.5h-42.5V335H388.6z"/>
<path class="st3" d="M483.2,327.1v31.5h-23.7v23.7h-31.5v-23.7h-23.7v-31.5h23.7v-23.7h31.5v23.7H483.2z"/>
<g>
	<path class="st4" d="M301.3,287.7v-31.5c27.5,0,53.7,13.8,67.1,31.2l-22.3,22.5C336.5,296.9,319.5,287.7,301.3,287.7z"/>
	<path class="st4" d="M388.6,335v8c0,8.1-1.1,16.1-3.4,23.7c-10.3,36.5-44.3,63.1-84,63.1v-31.7c22,0,41.6-12.9,50.3-31.5h-42.5V335
		H388.6z"/>
	<path class="st4" d="M483.2,327.1v31.5h-23.7v23.7h-15.8v-78.8h15.8v23.7h23.7V327.1z"/>
</g>
<path class="st5" d="M330,165c0,91-74,165-165,165V0C256,0,330,74,330,165z"/>
<path class="st3" d="M190.4,91.4v34h51l-8.5,51h-42.5v103.2h-51V176.4h-34v-51h34v-34c0-18.9,10.4-35.4,25.4-44.2
	c7.4-4.3,16.3-6.9,25.4-6.9h51v51L190.4,91.4L190.4,91.4z"/>
<path class="st4" d="M190.4,91.4v34h51l-8.5,51h-42.5v103.2H165V47.2c7.4-4.3,16.3-6.9,25.4-6.9h51v51H190.4z"/>
</svg>
