<svg id="Capa_1" enable-background="new 0 0 512 512" height="512" viewBox="0 0 512 512" width="512" xmlns="http://www.w3.org/2000/svg"><path d="m464.03 0-133.18 199.76-68.85-48.427-6.03-69.513 52-81.82z" fill="#f03800"/><path d="m331 200v88.1h-150v-88.1l75-12.5z" fill="#596c76"/><path d="m331 200v88.1h-75v-100.6z" fill="#465a61"/><path d="m330.85 199.76c-.05-.08-39.85-62.77-74.85-117.89-26.95-42.46-51.06-80.43-51.97-81.87h-156.06l133.03 200h150z" fill="#ff9100"/><path d="m331 200h-75v-118.13c35 55.12 74.8 117.81 74.85 117.89z" fill="#ff641a"/><path d="m256 242c-74.44 0-135 60.56-135 135s60.56 135 135 135 135-60.56 135-135-60.56-135-135-135z" fill="#ffda2d"/><path d="m391 377c0 74.44-60.56 135-135 135v-270c74.44 0 135 60.56 135 135z" fill="#ffb725"/><path d="m344.96 348.09-61.26-9.22-27.7-55.41-27.7 55.41-61.26 9.22 44.13 43.47-10.15 61.12 54.98-28.55 54.98 28.55-10.15-61.12z" fill="#ffb725"/><path d="m300.83 391.56 10.15 61.12-54.98-28.55v-140.67l27.7 55.41 61.26 9.22z" fill="#fa8b28"/></svg>