<?xml version="1.0"?>
<svg xmlns="http://www.w3.org/2000/svg" xmlns:xlink="http://www.w3.org/1999/xlink" version="1.1" id="Capa_1" x="0px" y="0px" viewBox="0 0 496 496" style="enable-background:new 0 0 496 496;" xml:space="preserve" width="512px" height="512px" class="hovered-paths"><g><g>
	<circle style="fill:#FFFFFF" cx="392" cy="392" r="104" data-original="#F0BC5E" class="active-path" data-old_color="#F0BC5E"/>
	<polygon style="fill:#FFFFFF" points="184,136 184,104 152,104 152,72 120,72 120,40 88,40 88,8 56,8 56,200 88,200 120,200    152,200 184,200 216,200 216,136  " data-original="#F0BC5E" class="active-path" data-old_color="#F0BC5E"/>
</g><rect x="84.155" y="336" transform="matrix(-0.7071 0.7071 -0.7071 -0.7071 502.7901 479.7383)" width="135.767" height="16" data-original="#000000" class="" style="fill:#FF0000" data-old_color="#000000"/><path d="M184,352c-13.232,0-24,10.768-24,24s10.768,24,24,24s24-10.768,24-24S197.232,352,184,352z M184,384c-4.408,0-8-3.584-8-8  s3.592-8,8-8s8,3.584,8,8S188.408,384,184,384z" data-original="#000000" class="" style="fill:#FF0000" data-old_color="#000000"/><path d="M120,336c13.232,0,24-10.768,24-24s-10.768-24-24-24s-24,10.768-24,24S106.768,336,120,336z M120,304c4.408,0,8,3.584,8,8  s-3.592,8-8,8s-8-3.584-8-8S115.592,304,120,304z" data-original="#000000" class="" style="fill:#FF0000" data-old_color="#000000"/><path d="M248,0c-42.872,0-84.64,11.104-121.672,32H96V0H48v101.496C16.64,144.216,0,194.776,0,248c0,136.752,111.256,248,248,248  c30.456,0,60.176-5.472,88.368-16.232c-5.368-3.408-10.376-7.296-15.016-11.6c-21.056,7.016-42.984,10.76-65.352,11.512V256h223.68  c-0.76,22.368-4.52,44.272-11.536,65.328c4.304,4.64,8.192,9.648,11.608,15.016C490.504,308.144,496,278.448,496,248  C496,111.256,384.744,0,248,0z M479.8,240h-68.488l58.832-58.832C475.792,199.896,479.104,219.616,479.8,240z M439.488,117.2  l-89.352,89.352l11.312,11.312l86.8-86.8c6.208,10.592,11.592,21.712,16.088,33.288L388.688,240h-49.376l10.344-10.344  l-11.312-11.312L316.688,240h-49.376L417.496,89.816C425.48,98.376,432.848,107.512,439.488,117.2z M363.36,71.952l15.44-15.44  c9.688,6.64,18.824,14,27.384,21.992L256,228.688v-49.376l97.224-97.224l-11.312-11.312L256,156.688v-49.376l75.648-75.648  c11.576,4.488,22.696,9.872,33.288,16.088L352.048,60.64L363.36,71.952z M256,84.688V16.2c20.384,0.696,40.104,4.008,58.832,9.656  L256,84.688z M192,144h16v48h-16V144z M176,128v64h-16v-80h16V128z M144,96v96h-16V80h16V96z M112,48v16v128H96V48H112z M64,16h16  v16v160H64V16z M80,208h16h16h16h16h16h16h16h32v-80h-32V96h-32V64h-32V49.536c33.848-20.512,72.312-31.896,112-33.256V240H16.32  c1.304-38.944,12.12-76.16,31.68-109.336V208H80z M240,479.8C118.432,475.648,20.352,377.568,16.2,256H240V479.8z" data-original="#000000" class="" style="fill:#FF0000" data-old_color="#000000"/><path d="M392,352c8.824,0,16,7.176,16,16h16c0-14.872-10.24-27.288-24-30.864V320h-16v17.136c-13.76,3.576-24,15.992-24,30.864  c0,17.648,14.352,32,32,32c8.824,0,16,7.176,16,16s-7.176,16-16,16s-16-7.176-16-16h-16c0,14.872,10.24,27.288,24,30.864V464h16  v-17.136c13.76-3.576,24-15.992,24-30.864c0-17.648-14.352-32-32-32c-8.824,0-16-7.176-16-16S383.176,352,392,352z" data-original="#000000" class="" style="fill:#FF0000" data-old_color="#000000"/><rect x="448" y="384" width="16" height="16" data-original="#000000" class="" style="fill:#FF0000" data-old_color="#000000"/><rect x="320" y="384" width="16" height="16" data-original="#000000" class="" style="fill:#FF0000" data-old_color="#000000"/></g> </svg>
