<?xml version="1.0"?>
<svg xmlns="http://www.w3.org/2000/svg" height="512px" viewBox="0 0 50 57" width="512px"><g><path id="Shape" d="m39.06 47.89c-.9 1.22-1.94 3.45-2.11 7.31-1.25.17-2.54.31-3.85.43 2.22-2.75 3.12-6.7 3.45-8.78.811841.403786 1.6504855.7512722 2.51 1.04zm-27.42-8.3c.6431364-4.4138648-1.0215543-8.8492652-4.41-11.75-2.23422472-1.7077472-3.42281882-4.4521126-3.14-7.25.15-2.94 2.68-6.25 4.41-8.72 4.85-6.87 12.28-14.48 20.42-10.99 7.36 3.12 12.08 9.39 14.74 14.06 1 1.75 2.23 3.69 2.33 5.61.14 2.39-1.9 4.69-3.26 6.87-1.56 2.52-3.27 5.48-3.76 8.76-.0586958.3669927-.0854627.7383833-.08 1.11 0 2.44.23 5.86.4 8.57-2.0963684-.7242437-4.0032992-1.9100949-5.58-3.47-.1745485-.1604081-.2787602-.3832056-.29-.62-.0335048-1.4067536.1348753-2.8110437.5-4.17 2.68-3.44 4.6-6.81 3.73-11.08-.3077464-1.1108596-.3556499-2.277652-.14-3.41.5085044.048962 1.0191491.0723248 1.53.07.5522847 0 1-.4477153 1-1s-.4477153-1-1-1c-3.31 0-5.87-.94-7.64-2.8-3-3.11-2.77-7.83-2.77-7.88.0178633-.3572656-.1562293-.69692257-.4566987-.89102542-.3004695-.19410285-.6816673-.21316275-1-.05-.3183328.16316274-.525438.48375982-.5433013.84102542 0 .3-1.16 9.38-15.46 10.79-.5522847.0524671-.9574671.5427153-.905 1.095s.5427153.9574671 1.095.905l1.1-.14c.2401055 1.1527995.1989442 2.346478-.12 3.48-.87 4.27 1 7.64 3.72 11.07.3827688 1.3795429.5547128 2.8090384.51 4.24-.0144002.2211685-.1064873.4301353-.26.59-2.0930814 2.0520934-4.7306126 3.4610903-7.6 4.06 1.4636-2.061361 2.4631972-4.4153613 2.93-6.9zm6.13-3.08c-2.34-3-4.22-5.88-3.46-9.59.372533-1.3669644.4170744-2.8025704.13-4.19 7.49-1.46 11-5.13 12.73-8.08.9369524 4.1305095 4.2160046 7.3233739 8.37 8.15-.2626664 1.3669705-.2113759 2.7757494.15 4.12.58 2.85-.27 5.46-3 9-2.1 2.73-5.8 7.08-9 5.8-1.77-.72-3.78-2.47-5.92-5.21zm-4.31 10.39c.34 2.09 1.24 6 3.43 8.72-1.31-.12-2.59-.26-3.84-.44-.17-3.8-1.19-6-2.08-7.25.8546738-.2803549 1.6870263-.6246614 2.49-1.03zm-13.14 4.66c.55974014-1.5473246 2.03459877-2.5733132 3.68-2.56 1.61930373.0040968 3.23464841-.1601187 4.82-.49.57.55 1.95 2.28 2.22 6.35-3.72006311-.549752-7.33478672-1.6624934-10.72-3.3zm19.79 4.3c-3.49-2.14-4.55-8.22-4.79-10 .8735802-.581292 1.6845773-1.2515375 2.42-2 1-1 .9-2 .81-3.41 4.7 4.67 8.2 4.67 12.89 0-.08 1.38-.12 2.4.84 3.38.7279074.7526526 1.5360591 1.4233178 2.41 2-.23 1.76-1.28 8-4.81 10.11-3.2556544.1532982-6.5172925.1265909-9.77-.08zm18.85-1c.27-4.16 1.7-5.88 2.25-6.4 1.6130554.3503255 3.2593474.5246783 4.91.52 1.6398883-.0031242 3.1065531 1.0199444 3.67 2.56-3.4060956 1.6550393-7.044536 2.7813035-10.79 3.34z" data-original="#000000" class="active-path" data-old_color="#000000" fill="#FF0000"/></g> </svg>
