<?xml version="1.0"?>
<svg xmlns="http://www.w3.org/2000/svg" height="512px" viewBox="0 0 50 56" width="512px"><g><path id="Shape" d="m36.83 56.18c-1.26.18-2.54.33-3.85.45 2.21-2.76 3.11-6.69 3.45-8.77.8102789.3960917 1.6493351.7303771 2.51 1-.94 1.26-1.94 3.48-2.11 7.32zm-27.83-28.36c-1.94-10.82-1-14.57 0-18.58.85-3.45 4.44-8.24 8.94-8.24 5 0 5.95 2.21 6 2.33.1435417.39548448.5192718.65882556.94.65882556s.7964583-.26334108.94-.65882556c0-.1 1-2.34 6-2.34 4.5 0 8.09 4.79 8.94 8.24 1 4 1.94 7.79 0 18.58-1.48 8.19-5.34 13.72-9.76 16.83 3.0535844-7.8618776 4.6758135-16.2067054 4.79-24.64 0-11-6-11-10.91-11s-10.88 0-10.88 11c.1252822 8.4340211 1.7541311 16.7780617 4.81 24.64-4.47-3.11-8.33-8.64-9.81-16.82zm17.16 14.86c-.8248953.3299546-1.7451047.3299546-2.57 0-1.7786448-.8527556-3.3462213-2.0890578-4.59-3.62-1.8869738-6.1816483-2.8968275-12.5975855-3-19.06 0-9 3.93-9 8.91-9s8.91 0 8.91 9c-.0969509 6.4432931-1.1070035 12.8402931-3 19-1.2534458 1.5649054-2.8471586 2.8234597-4.66 3.68zm-15.32 6.24c.8581566-.267571 1.6940445-.6019262 2.5-1 .34 2.09 1.24 6 3.43 8.72-1.3-.13-2.58-.28-3.84-.46-.17-3.82-1.19-6.03-2.09-7.26zm-10.64 3.64c.55974014-1.5473246 2.03459877-2.5733132 3.68-2.56 1.61657462.0053091 3.22908007-.162311 4.81-.5.57.54 2 2.26 2.23 6.34-3.72151503-.5321049-7.33789346-1.6386088-10.72-3.28zm19.8 4.3c-3.51-2.15-4.56-8.29-4.79-10.07.5355185-.3635016 1.0496999-.7574847 1.54-1.18 1.1564213.9460587 2.4386801 1.7268567 3.81 2.32.3833931.1482672.818464.0468136 1.0967296-.255745.2782656-.3025587.3430347-.7445818.1632704-1.114255-.5-1-1-2.2-1.51-3.5 3.34 2.53 5.94 2.44 9.16 0-.5 1.3-1 2.48-1.51 3.5-.1797643.3696732-.1149952.8116963.1632704 1.114255.2782656.3025586.7133365.4040122 1.0967296.255745 1.3820209-.59873 2.6743307-1.3862313 3.84-2.34.4850224.414234.9924551.8014852 1.52 1.16-.22 1.73-1.27 8-4.81 10.12-3.2546183.1668237-6.5157301.1634858-9.77-.01zm18.85-1c.28-4.16 1.7-5.87 2.25-6.38 1.6098517.3492209 3.2527098.523565 4.9.52 1.6398883-.0031242 3.1065531 1.0199444 3.67 2.56-3.4157291 1.658272-7.0699444 2.7717448-10.83 3.3z" transform="translate(0 -1)" data-original="#000000" class="active-path" data-old_color="#000000" fill="#FF0000"/></g> </svg>
