<?xml version="1.0"?>
<svg xmlns="http://www.w3.org/2000/svg" height="512px" viewBox="0 0 50 57" width="512px"><g><path id="Shape" d="m38.94 48.89c-.94 1.22-1.94 3.45-2.11 7.31-1.25.17-2.54.31-3.85.43 2.22-2.76 3.12-6.71 3.45-8.78.811841.403786 1.6504855.7512722 2.51 1.04zm-1.3-20.56c-.28-2.22-.61-2.33-.19-4.51.174692-.8619428.2982412-1.7334651.37-2.61.3773364-.1410062.7771839-.2121655 1.18-.21.1452499-.0288304.2947501-.0288304.44 0 .58.36.57 2.39.15 4v.16c-.1961414 1.2763131-.8992845 2.4193713-1.95 3.17zm-7.76-27.33c9.29 0 14 4 14 12 0 7.24-1.17 25.18 5.08 28.46-1.996805 1.476737-4.5265905 2.0364884-6.96 1.54-4-.66-5.44-4.48-6-7.7.8439414-1.4214801 1.3884188-3.0004646 1.6-4.64 2.0644222-.9911821 3.5134785-2.9294817 3.88-5.19.53-2.17.7-5.61-1.41-6.32-.7188809-.1916738-1.4731534-.2088164-2.2-.05 0-1.06 0-2.32 0-3.88-.4-10-10.74-11.09-12-11.22-.1 0-1.76 0-2.29 0 1.4612063-1.99662977 3.8289171-3.12411111 6.3-3zm-16 14.31c.24-6.2 5-8.27 8-9 1.2454979-.34504355 2.545223-.45024323 3.83-.31.62 0 9.83.66 10.17 9.31.07 1.71.07 3 0 4.11-4.7199812-1.4375756-8.4669982-5.0470534-10.08-9.71-.1244444-.42666667-.5155556-.72-.96-.72s-.8355556.29333333-.96.72c-1.6130018 4.6629466-5.3600188 8.2724244-10.08 9.71.01-1.07.01-2.42.08-4.11zm-3.68 9.91c0-.18-.62-2.53-.13-3.8.13-.38.29-.45.57-.42.4405076-.0036312.8789574.06045 1.3.19.29 3.44.93 3.26.29 6.32-.05.28-.08.55-.12.82-1.0149483-.7506088-1.6995427-1.8653147-1.91-3.11zm4 2.7c.69-3.34.08-3.62-.22-6.45 4.7490589-1.2623016 8.7243691-4.5088657 10.91-8.91 2.1856309 4.4011343 6.1609411 7.6476984 10.91 8.91-.3 2.84-.92 3.1-.22 6.45.59 2.85-.27 5.45-3 9-2.38 3.11-4.54 5-6.43 5.79-.8302881.3197015-1.7497119.3197015-2.58 0-1.86-.71-4.03-2.71-6.41-5.82-2.7-3.52-3.56-6.12-2.97-8.97zm-.85 20c.34 2.09 1.24 6 3.43 8.72-1.31-.12-2.59-.27-3.84-.44-.17-3.8-1.19-6-2.08-7.25.8518337-.2872985 1.6808408-.6382894 2.48-1.05zm-13.15 4.64c.55974014-1.5473246 2.03459877-2.5733132 3.68-2.56 1.61930373.0040968 3.23464841-.1601187 4.82-.49.57.55 2 2.28 2.22 6.35-3.71859819-.5562085-7.33236703-1.668656-10.72-3.3zm19.8 4.3c-3.49-2.14-4.55-8.22-4.79-10 .8692517-.587098 1.6796904-1.2568821 2.42-2 .95-1 .9-2.06.81-3.42 4.62 4.61 8.16 4.73 12.89 0-.08 1.37-.12 2.39.84 3.37.7279074.7526526 1.5360591 1.4233178 2.41 2-.23 1.76-1.28 8-4.81 10.11-3.2552848.1600183-6.5169261.1399877-9.77-.06zm18.85-1c.27-4.17 1.7-5.89 2.25-6.4 1.6090551.3563315 3.2519637.5373867 4.9.54 1.6398883-.0031242 3.1065531 1.0199444 3.67 2.56-3.4186612 1.6547937-7.0712714 2.7745228-10.83 3.32z" transform="translate(0 -1)" data-original="#000000" class="active-path" data-old_color="#000000" fill="#FF0000"/></g> </svg>
