<?xml version="1.0"?>
<svg xmlns="http://www.w3.org/2000/svg" height="512px" viewBox="0 0 50 57" width="512px" class=""><g><path id="Shape" d="m9.41 7.43c1.2375541-.75231721 2.7405142-.93106732 4.12-.49.2843464.10604186.6014628.07722179.862034-.07834307.2605711-.15556487.4364005-.4210408.477966-.72165693 0-.06 1-6.14 12-6.14 25.13 0 12.19 27.17 17.38 46.92-3.9835866-.1740298-7.7698068-1.7829958-10.66-4.53-.1745485-.1604081-.2787602-.3832056-.29-.62-.0392377-1.4142537.1326528-2.8264523.51-4.19 2.68-3.42 4.59-6.82 3.72-11.06-.58-2.79-.11-2.82.21-5.48h1.21c.3572656-.0250086.6740507-.2387164.8310254-.5606218s.1302909-.7031032-.07-1-.5437598-.4643868-.9010254-.4393782c-14.26.95-21.07-7.53-21.14-7.61-.2346304-.3023261-.6212258-.4442335-.9957306-.3655024-.3745049.0787312-.6712348.3642922-.7642694.7355024-.83 3.2-2.91 8.37-5.63 10.4-.34434433.2582582-.48479734.7078856-.3486833 1.1162278.136114.4083421.5182529.6837722.9486833.6837722.2163702 0 .4269038-.0701779.6-.2.3040026-.2368422.5944602-.4905753.87-.76.2401055 1.1527995.1989442 2.346478-.12 3.48-.87 4.24 1 7.65 3.72 11.06.3813741 1.3832313.5532835 2.8158098.51 4.25-.0144002.2211685-.1064873.4301353-.26.59-2.9651242 2.8430155-6.89281912 4.4640823-11 4.54 2.27-12.27-2.59-35.14 4.21-39.53zm29.53 40.46c-.94 1.22-1.94 3.45-2.11 7.31-1.25.17-2.54.31-3.85.43 2.22-2.76 3.12-6.71 3.45-8.78.811841.403786 1.6504855.7512722 2.51 1.04zm-21.78-12c-2.69-3.52-3.55-6.12-3-9 .65-3.12.16-3.57-.15-5.91 1.4145773-2.1716445 2.5249051-4.5268852 3.3-7 2.43 2.33 8.43 6.85 18.38 7.09-.31 2.31-.79 2.81-.15 5.87.58 2.85-.28 5.45-3 9-2.36 3.1-4.52 5-6.43 5.79-.8248953.3299546-1.7451047.3299546-2.57 0-1.85-.79-4.01-2.73-6.38-5.84zm-3.82 11c.34 2.09 1.24 6 3.43 8.72-1.31-.12-2.59-.27-3.84-.44-.17-3.8-1.19-6-2.08-7.25.8543899-.2771162 1.6867357-.6180772 2.49-1.02zm-13.14 4.67c.55647198-1.5764936 2.06897916-2.6117926 3.74-2.56 1.59914876-.0020524 3.19396973-.1662251 4.76-.49.57.55 2 2.28 2.22 6.35-3.71859819-.5562085-7.33236703-1.668656-10.72-3.3zm19.8 4.3c-3.49-2.14-4.55-8.22-4.79-10 .8692517-.587098 1.6796904-1.2568821 2.42-2 .94-1 .9-2 .81-3.41 4.67 4.65 8.22 4.65 12.89 0-.08 1.38-.12 2.4.84 3.37.7279074.7526526 1.5360591 1.4233178 2.41 2-.23 1.76-1.28 8-4.81 10.11-3.255469.1566887-6.5171103.1333198-9.77-.07zm18.85-1c.27-4.17 1.7-5.89 2.25-6.4 1.6090551.3563315 3.2519637.5373867 4.9.54 1.6398883-.0031242 3.1065531 1.0199444 3.67 2.56-3.4204434 1.6502502-7.0723417 2.7697611-10.83 3.32z" data-original="#000000" class="active-path" data-old_color="#000000" fill="#FF0000"/></g> </svg>
