<?xml version="1.0"?>
<svg xmlns="http://www.w3.org/2000/svg" height="512px" viewBox="0 0 50 58" width="512px" class=""><g><path id="Shape" d="m38.94 48.89c-.94 1.22-1.94 3.45-2.11 7.31-1.25.17-2.54.31-3.85.43 2.22-2.76 3.12-6.7 3.45-8.78.811841.403786 1.6504855.7512722 2.51 1.04zm-33.78-6.66c2.51-1.79 3.23-6.09.27-8.06-2.8-1.87-3.43-3.55-2.58-6.93s5.14-4.06 3-10.56c-1.21-3.63.4-4.93 2.11-6.3 1.91-1.54 2.1-2 2.32-4.3.23-2.5.47-5.08 5.62-5.08 7 0 8 3.13 8 3.24.1114998.4448894.5113511.75689508.97.75689508s.8585002-.31200568.97-.75689508c0-.13 1-3.26 8-3.26 5.16.02 5.43 2.6 5.66 5.1.22 2.32.4 2.76 2.32 4.3 1.71 1.37 3.32 2.67 2.11 6.3-2.17 6.52 2.09 7 3 10.56.84 3.38.22 5.06-2.58 6.93-3 2-2.23 6.28.27 8.06-2.8212873 1.3923747-5.8344145 2.3563058-8.94 2.86-.7491283-.4905754-1.443144-1.06054-2.07-1.7-.1745485-.1604081-.2787602-.3832056-.29-.62-.0355696-1.41408.1362555-2.8257411.51-4.19 2.69-3.42 4.58-6.83 3.72-11.06-.6-2.89-.08-2.82.24-5.74.3626645.1064289.7341579.1800582 1.11.22.5522847.0497056 1.0402944-.3577153 1.09-.91s-.3577153-1.0402944-.91-1.09c-10.27-1.85-13.14-10-13.25-10.32-.1348836-.41037454-.5180268-.6877501-.95-.6877501s-.8151164.27737556-.95.6877501c-.12.32-2.93 8.47-13.23 10.32-.5522847.0994113-.91941125.6277153-.82 1.18s.6277153.9194113 1.18.82c.32-.05.62-.13.93-.2.32 2.92.84 2.85.24 5.74-.86 4.23 1 7.64 3.72 11.06.3813741 1.3832313.5532835 2.8158098.51 4.25-.0144002.2211685-.1064873.4301353-.26.59-.6104971.6236531-1.2803309 1.1863135-2 1.68-3.1416389-.5027489-6.18933755-1.4770685-9.04-2.89zm12-5.34c-2.69-3.52-3.55-6.12-3-9 .71-3.41.06-3.57-.24-6.66 4.6462885-1.4506816 8.5586233-4.6292299 10.93-8.88 2.3713767 4.2507701 6.2837115 7.4293184 10.93 8.88-.3 3.11-1 3.25-.24 6.66.58 2.85-.28 5.45-3 9-2.37 3.1-4.54 5-6.44 5.79-.8248953.3299546-1.7451047.3299546-2.57 0-1.84-.74-4-2.68-6.37-5.79zm-3.82 11c.34 2.09 1.24 6 3.43 8.72-1.31-.12-2.59-.27-3.84-.44-.17-3.8-1.19-6-2.08-7.25.8543899-.2771162 1.6867357-.6180772 2.49-1.02zm-13.14 4.67c.55974014-1.5473246 2.03459877-2.5733132 3.68-2.56 1.61930373.0040968 3.23464841-.1601187 4.82-.49.57.55 2 2.28 2.22 6.35-3.72006311-.549752-7.33478672-1.6624934-10.72-3.3zm19.8 4.3c-3.49-2.14-4.55-8.22-4.79-10 .8735802-.581292 1.6845773-1.2515375 2.42-2 .94-1 .9-2 .81-3.4 4.63 4.61 8.18 4.69 12.89 0-.08 1.37-.12 2.39.84 3.37.7279074.7526526 1.5360591 1.4233178 2.41 2-.23 1.76-1.28 8-4.81 10.11-3.2556544.1532982-6.5172925.1265909-9.77-.08zm18.85-1c.27-4.16 1.7-5.88 2.25-6.4 1.6090551.3563315 3.2519637.5373867 4.9.54 1.6398883-.0031242 3.1065531 1.0199444 3.67 2.56-3.4197574 1.652-7.0719292 2.7715947-10.83 3.32z" data-original="#000000" class="active-path" data-old_color="#000000" fill="#FF0000"/></g> </svg>
